<svg data-name="Layer 2" xmlns="http://www.w3.org/2000/svg" viewBox="0 0 435.20522 294.03168" preserveAspectRatio="none"><path class="uuid-52f214e0-f9e8-4d44-ae47-a8f929151a44" d="M412.37297,291.77341c-37.22034,3.86438-41.89819-.20337-82.37268-.61017-40.47461-.4068-67.52539,2.13559-111.66089,2.13559s-105.25044-6.08828-133.11831-2.74576c-55.22776,6.62412-84.30494,6.6262-84.30494-25.93215,0-24.27243,1.62714-86.94897.4068-134.74548-1.22034-47.79657-.00925-58.25629-.30509-73.93207-.08551,1.00764-2.37329-26.87234.20337-38.4406C2.9268,9.84532,6.72064.8327,31.12737.8327c16.35233,0,35.38975,1.32184,61.22019-.35602,25.83051-1.67786,123.55116,1.67023,131.07655,1.4668,7.52551-.20337,115.22807.51635,145.533-1.11078,30.30518-1.62714,64.16165-3.66101,64.97513,23.59314.81348,27.25421-1.11862,64.97505-.91525,81.65303.20337,16.67792.30502,64.47443-1.52542,86.03369-1.83044,21.55927,18.10173,95.79646-19.11861,99.66084Z"/></svg>